# xmcd
#
# Track frame offsets:
#	150
#	18380
#	38871
#	53681
#	66506
#	78647
#	99641
#	112101
#	130849
#	142833
#	154931
#	168036
#	186460
#
# Disc length: 2632 seconds
# Revision: 0
# Processed by: cddbd v1.5.2PL0 Copyright (c) Steve Scherf et al.
# Submitted via: dBpowerAMP V12.0
#
DISCID=b20a460d
DTITLE=WABI A ĎÁBLOVO STÁDO - PŘÍBĚHY PÍSNÍ
DYEAR=2014
DGENRE=Country
TTITLE0=Dlouhý černý závoj
TTITLE1=Močál u Saint Louis
TTITLE2=Francka a Johnny
TTITLE3=Loch Lomond
TTITLE4=Jesse James
TTITLE5=Šťastné slunce
TTITLE6=Stack-A-Lee
TTITLE7=Partyzán
TTITLE8=Shenandoah
TTITLE9=Tam za Cukrovou horou
TTITLE10=Tancuj, Matildo
TTITLE11=Blues Špitálu sv. Jakuba
TTITLE12=Opilý Skot
EXTD=
EXTT0=
EXTT1=
EXTT2=
EXTT3=
EXTT4=
EXTT5=
EXTT6=
EXTT7=
EXTT8=
EXTT9=
EXTT10=
EXTT11=
EXTT12=
PLAYORDER=
